HIERARCHY
ROOT root
{
	OFFSET 0.000000 0.000000 0.000000
	CHANNELS 6 Xposition Yposition Zposition Zrotation Yrotation Xrotation
	JOINT lhip
	{
		OFFSET 0.058581 -0.082280 -0.017664
		CHANNELS 3 Zrotation Yrotation Xrotation
		JOINT lknee
		{
			OFFSET 0.043451 -0.386469 0.008037
			CHANNELS 3 Zrotation Yrotation Xrotation
			JOINT lankle
			{
				OFFSET -0.014790 -0.426874 -0.037428
				CHANNELS 3 Zrotation Yrotation Xrotation
				JOINT ltoe
				{
					OFFSET 0.041054 -0.060286 0.122042
					CHANNELS 3 Zrotation Yrotation Xrotation
					End Site
					{
						OFFSET 0.000000 0.000000 0.000000
					}
				}
			}
		}
	}
	JOINT rhip
	{
		OFFSET -0.060310 -0.090513 -0.013543
		CHANNELS 3 Zrotation Yrotation Xrotation
		JOINT rknee
		{
			OFFSET -0.043257 -0.383688 -0.004843
			CHANNELS 3 Zrotation Yrotation Xrotation
			JOINT rankle
			{
				OFFSET 0.019056 -0.420046 -0.034562
				CHANNELS 3 Zrotation Yrotation Xrotation
				JOINT rtoe
				{
					OFFSET -0.034840 -0.062106 0.130323
					CHANNELS 3 Zrotation Yrotation Xrotation
					End Site
					{
						OFFSET 0.000000 0.000000 0.000000
					}
				}
			}
		}
	}
	JOINT lowerback
	{
		OFFSET 0.004439 0.124404 -0.038385
		CHANNELS 3 Zrotation Yrotation Xrotation
		JOINT upperback
		{
			OFFSET 0.004488 0.137956 0.026820
			CHANNELS 3 Zrotation Yrotation Xrotation
			JOINT chest
			{
				OFFSET -0.002265 0.056032 0.002855
				CHANNELS 3 Zrotation Yrotation Xrotation
				JOINT lowerneck
				{
					OFFSET -0.013390 0.211636 -0.033468
					CHANNELS 3 Zrotation Yrotation Xrotation
					JOINT upperneck
					{
						OFFSET 0.010113 0.088937 0.050410
						CHANNELS 3 Zrotation Yrotation Xrotation
						End Site
						{
							OFFSET 0.000000 0.000000 0.000000
						}
					}
				}
				JOINT lclavicle
				{
					OFFSET 0.071702 0.114000 -0.018898
					CHANNELS 3 Zrotation Yrotation Xrotation
					JOINT lshoulder
					{
						OFFSET 0.122921 0.045205 -0.019046
						CHANNELS 3 Zrotation Yrotation Xrotation
						JOINT lelbow
						{
							OFFSET 0.255332 -0.015649 -0.022946
							CHANNELS 3 Zrotation Yrotation Xrotation
							JOINT lwrist
							{
								OFFSET 0.265709 0.012698 -0.007375
								CHANNELS 3 Zrotation Yrotation Xrotation
								End Site
								{
									OFFSET 0.000000 0.000000 0.000000
								}
							}
						}
					}
				}
				JOINT rclavicle
				{
					OFFSET -0.082954 0.112472 -0.023707
					CHANNELS 3 Zrotation Yrotation Xrotation
					JOINT rshoulder
					{
						OFFSET -0.113228 0.046853 -0.008472
						CHANNELS 3 Zrotation Yrotation Xrotation
						JOINT relbow
						{
							OFFSET -0.260127 -0.014369 -0.031269
							CHANNELS 3 Zrotation Yrotation Xrotation
							JOINT rwrist
							{
								OFFSET -0.269108 0.006794 -0.006027
								CHANNELS 3 Zrotation Yrotation Xrotation
								End Site
								{
									OFFSET 0.000000 0.000000 0.000000
								}
							}
						}
					}
				}
			}
		}
	}
}
MOTION
Frames: 11
Frame Time: 0.033333
0.644266 -0.730892 0.999968 -150.826807 -0.575022 90.410468 1.026972 0.889661 -6.923394 -3.313027 -4.698480 9.922778 0.856957 9.681143 -5.964944 0.000000 -0.000000 0.000000 -2.174457 -3.191290 -2.270764 -0.201412 -2.650661 5.787200 0.080058 -8.920965 -7.662136 0.000000 -0.000000 0.000000 0.684990 1.742833 8.599251 -2.673948 -3.489298 4.375856 -1.604798 -0.452816 -7.127879 2.304169 10.954764 -9.373198 7.998797 11.604512 -7.403845 -30.821888 -5.719359 3.117789 -52.686903 -1.057280 10.274996 16.697771 -30.210579 -2.922441 -3.807872 -10.871339 1.685488 26.202897 12.996546 6.048585 55.666464 7.279252 16.910842 -3.268246 22.005833 8.682760 4.473732 7.948549 6.715582 
0.643177 -0.733185 0.999722 -150.773122 -0.431069 90.645330 1.243964 0.543644 -7.758090 -3.746802 -4.689988 10.826201 0.661427 10.101224 -6.079021 0.000000 -0.000000 0.000000 -2.139141 -3.142903 -2.367640 -0.167895 -2.347326 5.418207 0.510813 -9.308374 -7.694080 0.000000 -0.000000 0.000000 0.906012 1.824442 9.153492 -2.815961 -3.316205 3.110437 -1.420482 -0.349965 -6.437676 2.003956 10.334595 -9.532656 7.911882 10.983259 -7.189045 -30.664274 -5.964077 3.435300 -53.040797 -1.409794 10.134721 16.751000 -30.281956 -2.762234 -3.487681 -10.990232 0.998688 26.036336 13.204316 6.096031 55.569705 7.381941 16.689363 -3.584687 21.716556 8.581093 4.258372 8.051860 6.354374 
0.640868 -0.734391 0.999331 -150.773182 -0.369293 90.739820 1.126644 0.298398 -8.006855 -3.784020 -4.489915 11.169882 0.723487 10.106815 -6.385723 0.000000 -0.000000 0.000000 -2.305790 -3.179394 -2.281239 -0.090278 -2.197741 5.161964 0.605400 -9.347128 -7.891457 0.000000 -0.000000 0.000000 0.997872 2.044715 9.369217 -2.726856 -3.152558 2.858275 -1.309078 -0.344066 -6.478841 2.022256 8.810834 -9.519898 7.726219 9.891243 -5.827149 -30.884526 -5.916430 3.837423 -53.055764 -1.712951 10.186390 16.628440 -30.591142 -2.668358 -3.119865 -10.986608 0.519204 25.883758 13.208118 6.336447 55.167634 7.459990 16.657281 -3.588341 21.710811 8.499636 4.067965 8.039375 6.046264 
0.636713 -0.735468 0.999096 -150.635022 -0.325162 90.850812 0.822414 0.031524 -8.389043 -3.808360 -4.570730 11.818562 0.855383 10.247161 -6.896537 0.000000 -0.000000 0.000000 -2.442159 -3.411984 -2.435568 -0.309286 -2.076540 5.453325 0.776828 -9.239009 -8.239711 0.000000 -0.000000 0.000000 0.989065 2.115253 9.409814 -2.539223 -3.142356 2.922905 -1.178190 -0.218175 -6.811705 1.832835 6.706398 -8.777498 7.287990 8.610260 -3.962103 -30.882385 -5.684230 4.216941 -53.349130 -1.910947 10.451833 16.667544 -30.945381 -2.760377 -2.678454 -10.935869 0.286082 25.904007 13.292163 6.597257 54.820489 7.804642 16.598219 -3.796101 20.898389 8.253479 3.869438 8.033017 6.426365 
0.634031 -0.737003 0.999087 -150.647653 -0.267400 91.076129 0.458186 -0.174277 -8.807475 -3.450193 -4.341310 12.224811 1.041573 10.470780 -7.149736 0.000000 -0.000000 0.000000 -2.483041 -3.282468 -3.064945 -0.381444 -2.540325 6.169223 0.936776 -9.628952 -8.406336 0.000000 -0.000000 0.000000 0.979798 2.190370 9.311448 -2.373721 -3.097815 3.035375 -1.182257 -0.106666 -7.016915 1.657410 5.777636 -8.289674 7.042908 7.490930 -2.882498 -30.615056 -5.647709 4.270663 -53.766578 -2.022075 10.928427 16.787698 -30.908839 -2.867921 -2.969516 -11.065687 0.313298 25.840131 13.719788 7.042116 54.612404 7.999411 16.457832 -4.098277 20.622560 7.543003 3.958265 8.271355 6.068241 
0.628926 -0.736909 0.998734 -150.499319 -0.277583 91.044763 0.063753 -0.191281 -8.681382 -3.503192 -4.659661 12.506496 1.175608 10.456742 -7.634729 0.000000 -0.000000 0.000000 -2.624869 -3.367979 -3.294986 -0.770704 -2.452594 7.046093 0.954169 -9.752502 -8.802297 0.000000 -0.000000 0.000000 0.933896 2.044643 8.965590 -2.166109 -3.026839 3.573305 -1.257033 0.015990 -7.164131 1.271811 4.375739 -7.306080 6.657419 6.269467 -1.667954 -30.611804 -5.334893 4.320533 -53.903758 -2.234745 11.201971 16.815594 -30.882051 -3.108224 -2.897520 -10.889021 0.581966 26.011650 13.534537 6.837095 54.204737 8.103264 16.396086 -4.163724 20.391736 7.136783 4.108206 8.202363 6.516296 
0.623802 -0.737275 0.998358 -150.472670 -0.274282 91.043290 -0.273187 -0.319351 -8.690942 -3.511572 -4.675698 12.947948 1.253115 10.950134 -8.667278 0.000000 -0.000000 0.000000 -2.860107 -3.099439 -3.968354 -1.038445 -2.212062 8.743310 1.060357 -9.662150 -9.236121 0.000000 -0.000000 0.000000 0.881590 2.122880 8.883500 -1.936134 -2.973371 3.766812 -1.366311 0.014144 -7.177658 0.875466 3.149556 -6.466138 6.450941 5.175296 -0.211880 -30.548355 -5.048846 4.208232 -54.002610 -2.351676 11.541097 16.755599 -30.822280 -3.181420 -2.745464 -10.811473 0.683148 26.224363 13.344273 6.701946 53.903679 8.323520 16.268284 -4.317110 20.286796 6.575705 4.005050 8.337493 6.613860 
0.617977 -0.737532 0.998036 -150.211569 -0.425071 90.810234 -0.765999 -0.566484 -8.329688 -3.784196 -5.255781 13.287547 1.616577 10.783895 -9.302949 0.000000 -0.000000 0.000000 -3.097277 -3.075622 -4.681259 -1.753735 -2.327690 11.050858 1.045497 -9.852825 -9.886777 0.000000 -0.000000 0.000000 0.450961 2.047965 8.948733 -1.714631 -3.020011 4.126501 -1.273881 -0.084550 -7.215404 0.890899 2.280212 -5.657180 6.110448 4.527986 0.895890 -30.437467 -4.885496 4.128507 -53.859599 -2.366059 11.710716 16.563430 -30.837499 -3.330663 -2.451137 -10.849408 0.829653 26.516079 13.264988 6.546406 53.553690 8.431805 16.195956 -4.501711 20.359984 6.019594 3.916631 8.582593 6.961661 
0.611417 -0.737408 0.997399 -150.106374 -0.653034 90.515069 -1.326918 -0.843117 -7.679933 -4.031847 -5.571926 13.324085 1.894015 11.010182 -10.203313 0.000000 -0.000000 0.000000 -3.354828 -2.800349 -5.733429 -2.620939 -2.539638 14.266981 1.213085 -10.212047 -10.891280 0.000000 -0.000000 0.000000 -0.094705 1.957056 8.924296 -1.557249 -2.945383 4.611933 -1.253297 -0.128104 -7.197326 0.949711 1.657135 -5.135010 5.834407 3.909479 2.208150 -30.146250 -4.688890 4.163292 -53.804129 -2.475019 11.639867 16.509282 -30.896020 -3.450877 -2.548987 -10.778968 0.945791 26.719540 13.101415 6.544725 53.414478 8.584812 16.023024 -4.853021 20.750161 5.306000 4.046046 8.861141 6.837501 
0.602549 -0.737248 0.996082 -150.160166 -0.996827 90.253293 -2.202285 -1.236598 -6.992154 -4.402123 -6.372277 13.492310 2.474520 11.376934 -11.108746 0.000000 -0.000000 0.000000 -3.530802 -1.875746 -8.013108 -4.166795 -2.818155 19.694560 1.301447 -11.178181 -11.852889 0.000000 -0.000000 0.000000 -0.861590 1.706636 9.002973 -1.278714 -2.741175 5.128132 -1.285056 -0.150897 -7.453673 0.805740 1.145834 -4.067324 5.679053 3.665008 3.432855 -29.867965 -4.336557 3.886972 -53.558274 -2.163020 12.003980 16.439068 -30.853980 -3.909471 -2.691287 -10.763341 1.437463 26.986451 12.801076 6.385420 53.288465 8.213211 15.977541 -5.480505 21.779330 4.169062 4.140066 9.516630 6.751054 
0.595093 -0.735977 0.994381 -150.243203 -1.608822 89.574250 -3.286928 -1.628953 -5.536870 -4.795660 -7.101069 12.999831 3.198931 11.742804 -11.324480 0.000000 -0.000000 0.000000 -3.766933 -0.976699 -9.615696 -5.673341 -2.939446 24.760150 1.301304 -12.573096 -12.692635 0.000000 -0.000000 0.000000 -1.629947 1.405462 9.451987 -1.266887 -2.535314 5.565783 -1.431744 -0.264497 -7.558296 0.661668 0.858628 -3.303840 5.613119 3.513449 4.477021 -29.755087 -4.267316 3.982890 -52.937929 -2.016944 11.973628 16.504315 -30.717566 -4.673192 -3.059850 -10.914592 1.720524 27.487138 12.821451 6.351650 53.196957 7.900956 15.872172 -6.276094 22.549468 2.979654 4.296093 10.080145 6.525272 
